<svg width="17" height="20" viewBox="0 0 17 20" fill="none" xmlns="http://www.w3.org/2000/svg">
<path d="M5.81286 11.5467C5.53948 11.8518 5.53948 12.3464 5.81286 12.6516C6.08625 12.9567 6.52945 12.9566 6.8028 12.6515L8.6837 10.5523C8.95915 10.2449 8.95358 9.74866 8.6837 9.44745L6.80276 7.34822C6.52942 7.04311 6.08621 7.04314 5.81283 7.34822C5.53944 7.6533 5.53944 8.14799 5.81283 8.45311L6.49876 9.21862L0.699999 9.21858C0.313425 9.21858 0 9.56835 0 9.99983C0 10.4313 0.31339 10.7811 0.699999 10.7811L6.49879 10.7811L5.81286 11.5467Z" fill="black"/>
<path d="M16.1698 0H4.75981C4.3732 0 4.05981 0.349766 4.05981 0.78125V3.75C4.05981 4.18148 4.3732 4.53125 4.75981 4.53125C5.14642 4.53125 5.45981 4.18148 5.45981 3.75V1.5625H15.4698V18.4375H5.45981V16.25C5.45981 15.8185 5.14642 15.4688 4.75981 15.4688C4.3732 15.4688 4.05981 15.8185 4.05981 16.25V19.2188C4.05981 19.6502 4.3732 20 4.75981 20H16.1698C16.5564 20 16.8698 19.6502 16.8698 19.2188V0.78125C16.8698 0.349766 16.5564 0 16.1698 0Z" fill="black"/>
</svg>
